# xmcd CD Database Entry
#
# Track frame offsets:
# 150
# 21681
# 36591
# 51269
# 73239
# 97642
# 112952
# 138894
# 154923
# 173798
# 181973
#
# Disc length: 2897 seconds
#
# Revision: 1
# Processed by: cddbd v1.5.1PL0 Copyright (c) Steve Scherf et al.
# Submitted via: tcd 2.0b
#
DISCID=970b4f0b
DTITLE=Willard Grant Conspiracy - Regard The End
DYEAR=1900
DGENRE=
TTITLE0=River In The Pines
TTITLE1=The Trials of Harrison Hayes
TTITLE2=Beyond the Shore
TTITLE3=The Ghost of the Girl in the Well
TTITLE4=Twistification
TTITLE5=Another Man Is Gone
TTITLE6=Soft Hand
TTITLE7=Rosalee
TTITLE8=Fare Thee Well
TTITLE9=Day Is Passed And Gone
TTITLE10=The Suffering Song
EXTD=
EXTT0=
EXTT1=
EXTT2=
EXTT3=
EXTT4=
EXTT5=
EXTT6=
EXTT7=
EXTT8=
EXTT9=
EXTT10=
PLAYORDER=
